<?xml version="1.0" encoding="UTF-8" standalone="no"?>
<svg
   version="1.1"
   width="841.88977pt"
   height="595.27557pt"
   id="svg10"
   viewBox="0 0 841.88977 595.27557"
   sodipodi:docname="logo.cdr"
   xmlns:inkscape="http://www.inkscape.org/namespaces/inkscape"
   xmlns:sodipodi="http://sodipodi.sourceforge.net/DTD/sodipodi-0.dtd"
   xmlns="http://www.w3.org/2000/svg"
   xmlns:svg="http://www.w3.org/2000/svg">
  <defs
     id="defs10" />
  <sodipodi:namedview
     id="namedview10"
     pagecolor="#ffffff"
     bordercolor="#000000"
     borderopacity="0.25"
     inkscape:showpageshadow="2"
     inkscape:pageopacity="0.0"
     inkscape:pagecheckerboard="0"
     inkscape:deskcolor="#d1d1d1"
     inkscape:document-units="pt" />
  <g
     id="Layer1000">
    <g
       id="Layer1001">
      <g
         id="Layer1002">
        <path
           d="m 425.1211,267.1401 c -1.1423,-1.0968 -2.6741,-1.8084 -4.2898,-2.0024 -0.4789,-0.0633 -0.9702,-0.0963 -1.4602,-0.0963 -3.9883,0 -7.5281,2.1331 -9.7947,3.9222 -4.2788,3.3443 -7.5006,8.3002 -9.0727,13.9552 l -0.002,0.006 c -0.7728,2.9163 -1.1674,5.9303 -1.1727,8.9566 -0.006,2.9191 0.2177,6.2716 1.6574,8.8741 0.4366,-9.4053 2.073,-19.4822 8.829,-26.5589 l 0.007,-0.007 c 3.4737,-3.6113 8.7928,-7.7896 14.0859,-5.183 2.9424,1.5717 2.341,6.0913 2.341,6.0913 0,0 0.3826,-0.8257 0.5065,-1.229 0.3041,-1.0019 0.4059,-2.0699 0.2546,-3.1089 -0.2065,-1.4368 -0.9028,-2.6713 -1.8896,-3.6196 z"
           style="fill:#009ee0;fill-rule:evenodd"
           id="path1" />
        <path
           d="m 393.953,298.7168 c 0.0303,0.01 0.0777,0.0261 0.1296,0.044 0.0388,0.0124 0.0819,0.0248 0.112,0.0385 -0.0259,-0.004 -0.0647,-0.0178 -0.112,-0.0344 -0.0606,-0.022 -0.1037,-0.0344 -0.1296,-0.0481 z"
           style="fill:#e30079;fill-rule:evenodd"
           id="path2" />
        <path
           d="m 420.2285,249.5214 c -1.4616,0.2284 -2.886,0.578 -4.2306,1.0322 -1.4148,-6.9047 -8.1639,-11.9775 -16.3593,-7.9891 -8.501,3.8686 -14.8138,14.1684 -15.2579,23.026 -0.8856,9.9323 3.818,21.1157 7.1329,31.3495 -11.5358,-14.5978 -17.3303,-37.032 -3.4218,-51.9602 6.3265,-7.44 18.4761,-12.4055 26.4652,-5.6399 3.1915,2.8034 5.0453,6.4009 5.6715,10.1815 z"
           style="fill:#009ee0;fill-rule:evenodd"
           id="path3" />
        <path
           d="m 391.5136,296.94 c 0.051,-0.008 0.1015,-0.0137 0.1351,-0.0151 -0.0298,0.007 -0.072,0.011 -0.1312,0.0193 -0.2827,0.0289 -0.1514,0.01 -0.004,-0.004 z"
           style="fill:#e30079;fill-rule:evenodd"
           id="path4" />
        <path
           d="m 359.4903,263.438 c 2.5792,1.7685 4.7412,3.7214 6.4262,5.8036 l 0.004,0.006 c 4.5444,5.4485 7.6032,13.0262 7.7883,21.2892 v 0 c 0.3836,-2.765 0.8515,-5.5849 0.4956,-8.4351 -0.3497,-2.7993 -1.051,-5.5628 -2.0849,-8.2134 -1.0372,-2.6603 -2.3935,-5.1665 -4.0309,-7.4496 -1.6722,-2.3314 -3.6177,-4.4013 -5.7828,-6.1505 -0.4535,-0.4473 -1.0489,-0.6675 -1.6792,-0.6235 -0.6196,0.0441 -1.2177,0.3496 -1.641,0.8368 l -0.0575,0.0661 -0.0289,0.0825 c -0.1231,0.3537 -0.2614,0.8863 -0.2204,1.4162 0.0478,0.6179 0.3281,1.0928 0.8112,1.3721 z"
           style="fill:#009ee0;fill-rule:evenodd"
           id="path5" />
        <path
           d="m 372.0549,291.7777 c -0.9359,-4.6448 -2.7899,-9.2112 -6.163,-12.9147 -1.6304,-1.7905 -3.4833,-3.3759 -5.5072,-4.7136 -2.0436,-1.3515 -4.2306,-2.4291 -6.5006,-3.204 l -0.009,-0.003 -0.01,-0.003 c -0.3769,-0.1114 -0.7538,-0.2463 -1.1526,-0.3908 -1.0604,-0.3826 -2.1571,-0.7776 -3.318,-0.695 -0.3051,0.022 -0.6052,0.0771 -0.892,0.1638 l -0.2112,0.0633 -0.0808,0.2064 c -0.0253,0.0633 -0.0512,0.128 -0.0773,0.1927 -0.289,0.7198 -0.6169,1.5359 -0.3054,2.4112 l 0.0227,0.0633 0.04,0.055 c 0.5558,0.7528 1.4176,0.9166 2.1778,1.0611 0.1979,0.0372 0.3849,0.073 0.5606,0.1184 l 0.018,0.004 0.0183,0.003 c 7.2584,1.2153 13.8862,5.5119 17.7295,11.4917 l 0.007,0.011 0.008,0.011 c 0.8402,1.1506 3.2035,5.2669 3.6452,6.0679 z"
           style="fill:#009ee0;fill-rule:evenodd"
           id="path6" />
        <path
           d="m 416.3268,321.2776 c -1.1354,-2.2612 -2.5171,-4.5182 -4.2236,-6.9019 l -0.004,-0.005 -0.003,-0.005 c -4.0214,-5.3137 -9.203,-9.9557 -15.4026,-13.7941 -2.8684,-1.7754 -5.9718,-3.387 -9.2243,-4.788 -3.1091,-1.3391 -6.3952,-2.5048 -9.7671,-3.464 l -0.005,-10e-4 c -0.1491,-0.0399 -0.3006,-0.0839 -0.4611,-0.1293 -0.8597,-0.2478 -1.8341,-0.5272 -2.7684,-0.4611 -0.7385,0.0537 -1.3686,0.3221 -1.8731,0.7982 -0.6053,0.4349 -1.0307,1.0625 -1.2311,1.8153 -0.1823,0.6854 -0.1658,1.4547 0.0464,2.1662 0.2043,0.6854 0.5716,1.2786 1.062,1.7176 0.5391,0.483 1.2048,0.7528 1.9267,0.7817 7.1093,1.1271 13.6393,3.0841 19.4085,5.8174 l 0.004,0.003 c 6.9502,3.215 12.9242,7.7029 17.3777,12.985 2.3617,2.729 7.1455,10.3108 7.557,11.2508 v 0 c -0.1211,-1.7052 -1.1313,-5.2229 -2.4195,-7.7841 z"
           style="fill:#e30079;fill-rule:evenodd"
           id="path7" />
      </g>
      <g
         id="Layer1003">
        <path
           d="m 153.8185,338.2083 c 2.7167,-1.0033 5.3724,-3.6015 5.3724,-8.2651 0,-7.2606 -6.08,-10.9208 -15.5257,-10.9208 h -26.152 l -8.2652,10.2719 h 34.9488 c 1.7122,0 3.4231,0.5902 3.4231,2.5383 0,2.0079 -1.6523,2.6569 -3.4231,2.6569 H 109.248 v 24.0267 h 34.7129 c 12.4558,0 16.0573,-4.9593 16.0573,-11.5111 0,-4.7235 -2.7754,-7.7934 -6.1997,-8.7968 z m -9.7989,4.7223 c 2.6568,0 3.7775,0.9447 3.7775,2.6569 0,1.8307 -1.1207,2.7754 -3.7775,2.7754 h -22.4918 v -5.4323 z m 34.4171,5.4323 v -5.3724 h 24.2626 l 7.0247,-8.974 h -31.2873 v -4.7222 h 25.5617 l 7.9107,-10.2719 h -45.7522 v 39.4938 h 38.0187 l 7.8509,-10.1533 z M 276.8461,358.5162 252.1692,322.8 c -1.7122,-2.4785 -4.132,-4.4265 -7.7922,-4.4265 -3.8374,0 -6.2572,2.1252 -7.9107,4.4265 l -25.3259,35.7162 h 14.4637 l 18.537,-26.2107 7.0834,10.4491 c 1.2991,1.8882 2.9526,4.3092 4.0146,5.7256 -1.8893,-0.1173 -4.6635,-0.1173 -7.0247,-0.1173 h -9.9174 l -7.3791,10.1533 z m 51.0048,-39.4938 h -12.2785 v 22.2559 c 0,5.5496 -2.9514,7.7335 -12.3385,7.7335 -12.5743,0 -15.0539,-1.8894 -15.0539,-7.7335 v -22.2559 h -12.1613 v 22.2559 c 0,11.9254 8.2065,17.8868 27.2152,17.8868 16.4118,0 24.617,-5.9614 24.617,-17.8868 z m 11.0993,0 -7.9108,10.2719 h 18.537 v 29.2219 h 12.2199 v -29.2219 h 14.1093 l 7.9107,-10.2719 z m 89.791,0 -8.9728,10.9208 c -2.834,3.4244 -4.1918,5.1365 -4.9593,6.2584 -0.8261,-1.1805 -4.132,-4.7821 -5.3724,-6.1985 l -9.4445,-10.9807 h -15.7041 l 24.0866,26.3879 v 13.1059 h 12.2786 v -13.0461 l 23.4364,-26.4477 z"
           style="fill:#009ee0;fill-rule:evenodd"
           id="path8" />
        <path
           d="m 469.1797,322.5641 c -1.4165,-2.597 -3.5417,-4.1906 -6.6703,-4.1906 -3.07,0 -5.8442,1.7708 -6.9074,5.431 l -10.212,34.7117 h 11.9828 l 3.7201,-13.7549 c 1.1806,-4.4277 2.0654,-7.7335 2.6557,-10.8621 1.2404,2.6568 2.6569,5.431 5.5496,10.8621 l 5.3137,9.9761 c 2.0654,3.8973 4.0733,4.4277 7.0247,4.4277 2.9514,0 4.9582,-0.5304 7.0247,-4.4277 l 5.3138,-9.9174 c 2.7155,-5.1354 4.1906,-8.1466 5.4897,-10.9208 0.649,3.1873 1.4763,6.3757 2.7155,10.8621 l 3.7189,13.7549 h 12.1613 l -9.9773,-34.7117 c -1.0621,-3.6602 -3.7776,-5.431 -6.8475,-5.431 -3.1873,0 -5.3126,1.6523 -6.7302,4.1906 l -6.3159,11.2165 c -3.483,6.0813 -5.018,8.974 -6.3171,11.7482 -1.3578,-2.7742 -2.8927,-5.7268 -6.3757,-11.8068 z m 78.693,-4.1906 c -19.2446,0 -28.8675,6.2572 -28.8675,20.3665 0,14.1092 9.6229,20.4251 28.8675,20.4251 19.1859,0 28.8675,-6.3159 28.8675,-20.4251 0,-14.1093 -9.6816,-20.3665 -28.8675,-20.3665 z m 0,30.5198 c -12.2786,0 -16.7063,-1.6523 -16.7063,-10.1533 0,-8.5011 4.4277,-10.0947 16.7063,-10.0947 12.2786,0 16.7063,1.5936 16.7063,10.0947 0,8.501 -4.4277,10.1533 -16.7063,10.1533 z m 85.3046,-10.5077 c 0,-11.3938 -9.9773,-19.3632 -23.7908,-19.3632 H 590.731 l -7.7922,10.2719 h 26.4477 c 6.6116,0 11.6883,4.0733 11.6883,9.6229 0,5.6669 -4.8995,9.4457 -11.6883,9.4457 h -14.168 v -14.4637 h -12.2797 v 24.617 h 26.4477 c 13.6962,0 23.7908,-8.6782 23.7908,-20.1306 z m 18.4784,9.9773 v -5.3724 h 24.2626 l 7.0247,-8.974 h -31.2873 v -4.7222 h 25.5617 l 7.9107,-10.2719 h -45.7522 v 39.4938 h 38.0187 l 7.8508,-10.1533 z m 50.0015,0 v -29.3405 h -12.2199 v 39.4938 h 34.8888 l 7.9108,-10.1533 z"
           style="fill:#e30079;fill-rule:evenodd"
           id="path9" />
      </g>
    </g>
    <path
       d="m 452.2483,307.1229 c -9.2264,11.0031 -33.3189,1.5662 -42.2467,-6.9308 1.9199,0.6248 25.7235,10.71 35.6036,5.5298 3.3126,-1.7382 4.7191,-5.7417 3.2864,-9.1961 -0.5821,-1.401 -1.4271,-2.6135 -2.2074,-3.537 -2.1649,-2.5488 -4.7963,-4.4067 -7.7291,-5.7871 -1.9666,-0.9317 -4.0626,-1.6474 -6.2495,-2.2171 -6.3486,-1.6515 -13.4267,-2.0796 -20.012,-2.886 2.4456,-0.5725 15.1813,-4.3421 18.5889,-6.8483 3.0443,-1.8813 5.0591,-4.5677 6.0721,-7.4537 0.6468,-1.8414 0.889,-3.764 0.7294,-5.611 -0.479,-5.5339 -4.5375,-10.3893 -11.9995,-10.3727 -2.2117,-0.051 -4.4715,0.267 -6.6886,0.8849 -1.4836,0.4046 -2.9507,0.9482 -4.3696,1.6047 -2.9245,1.3487 -5.6674,3.1695 -8.0098,5.2916 -0.2587,0.2285 -0.5078,0.4652 -0.7541,0.7033 -1.924,1.8621 -3.5453,3.9278 -4.7233,6.0844 -3.8509,6.4312 -5.2441,14.8153 -6.3008,23.1485 -0.1682,1.3281 -0.3277,2.6576 -0.4873,3.976 0,0.005 0,0.005 0,0.005 -0.2157,1.7726 -0.4313,3.5273 -0.6684,5.249 -0.5997,-2.6878 -1.0136,-5.4692 -1.2293,-8.2905 -0.2458,-3.1654 -0.233,-6.3789 0.056,-9.5526 0.7116,-7.9409 3.1615,-15.6259 7.742,-21.7295 0.7033,-0.94 1.4575,-1.8414 2.264,-2.7002 3.0278,-3.2218 6.7808,-5.8436 11.3389,-7.6162 0.117,-0.0523 0.2326,-0.0991 0.3496,-0.1514 1.3501,-0.5739 2.791,-1.0432 4.2787,-1.3928 8.6388,-2.0492 18.8299,-0.1376 22.5348,8.1997 1.295,3.0704 1.6694,6.2235 1.2812,9.2292 -0.2628,2.0657 -0.8877,4.0668 -1.8235,5.9178 -2.2171,4.4081 -6.1766,7.9919 -11.171,9.7563 2.7043,0.1637 5.5077,0.6592 8.2203,1.4698 1.8593,0.5519 3.6746,1.2551 5.3825,2.1015 6.2675,3.0911 11.1408,8.0992 11.6059,14.7933 0.2078,3.014 -0.7198,6.0115 -2.6644,8.3277 z"
       style="fill:#e30079;fill-rule:evenodd"
       id="path10" />
  </g>
</svg>
